<?xml version="1.0" encoding="utf-8"?>
<!-- Generator: Adobe Illustrator 16.0.0, SVG Export Plug-In . SVG Version: 6.00 Build 0)  -->
<!DOCTYPE svg PUBLIC "-//W3C//DTD SVG 1.1//EN" "http://www.w3.org/Graphics/SVG/1.1/DTD/svg11.dtd">
<svg version="1.1" id="Capa_1" xmlns="http://www.w3.org/2000/svg" xmlns:xlink="http://www.w3.org/1999/xlink" x="0px" y="0px"
	 width="352.621px" height="352.621px" viewBox="0 0 352.621 352.621" enable-background="new 0 0 352.621 352.621"
	 xml:space="preserve">
<g>
	<path style="fill:green;" d="M337.222,22.952c-15.912-8.568-33.66,7.956-44.064,17.748c-23.867,23.256-44.063,50.184-66.707,74.664
		c-25.093,26.928-48.349,53.856-74.053,80.172c-14.688,14.688-30.6,30.601-40.392,48.961
		c-22.032-21.422-41.004-44.678-65.484-63.648c-17.748-13.464-47.124-23.256-46.512,9.18c1.224,42.229,38.556,87.518,66.096,116.279
		c11.628,12.24,26.928,25.094,44.676,25.705c21.42,1.225,43.452-24.48,56.304-38.557c22.645-24.479,41.005-52.021,61.812-77.111
		c26.928-33.049,54.469-65.485,80.784-99.145C326.207,96.392,378.226,44.983,337.222,22.952z"/>
</g>
</svg>
